<mxfile host="app.diagrams.net" modified="2020-12-21T00:48:08.642Z" agent="5.0 (Windows)" etag="NnWOmjJJQjHx1z0Hp_sQ" version="14.1.1" type="github">
  <diagram id="56Go-gq-7w3DxhV44uWK" name="Page-1">
    <mxGraphModel dx="782" dy="707" grid="1" gridSize="10" guides="1" tooltips="1" connect="1" arrows="1" fold="1" page="1" pageScale="1" pageWidth="850" pageHeight="1100" math="0" shadow="0">
      <root>
        <mxCell id="0" />
        <mxCell id="1" parent="0" />
        <mxCell id="k7p3xYgrQuZx1QTl7_Ga-2" value="&lt;font style=&quot;font-size: 20px&quot;&gt;ESP32&lt;/font&gt;" style="whiteSpace=wrap;html=1;aspect=fixed;" vertex="1" parent="1">
          <mxGeometry x="330" y="220" width="130" height="130" as="geometry" />
        </mxCell>
        <mxCell id="k7p3xYgrQuZx1QTl7_Ga-3" value="&lt;div&gt;OUT&lt;/div&gt;&lt;div&gt;&lt;br&gt;&lt;/div&gt;Circuit" style="rounded=0;whiteSpace=wrap;html=1;" vertex="1" parent="1">
          <mxGeometry x="510" y="160" width="60" height="250" as="geometry" />
        </mxCell>
      </root>
    </mxGraphModel>
  </diagram>
</mxfile>
